<mxfile host="www.draw.io" modified="2019-12-25T05:51:09.297Z" agent="Mozilla/5.0 (Windows NT 10.0; Win64; x64) AppleWebKit/537.36 (KHTML, like Gecko) Chrome/79.0.3945.88 Safari/537.36" etag="CW1euZrivdVh1XzUD6yC" version="12.4.3" type="github" pages="1">
  <diagram id="63j3Tc_DTd_hh4s5z3Qr" name="Page-1">
    <mxGraphModel dx="260" dy="570" grid="1" gridSize="10" guides="1" tooltips="1" connect="1" arrows="1" fold="1" page="1" pageScale="1" pageWidth="827" pageHeight="1169" math="0" shadow="0">
      <root>
        <mxCell id="0"/>
        <mxCell id="1" parent="0"/>
        <mxCell id="mcwGRih9CQmdzjxIDWCY-10" value="" style="edgeStyle=orthogonalEdgeStyle;rounded=0;orthogonalLoop=1;jettySize=auto;html=1;" parent="1" edge="1">
          <mxGeometry relative="1" as="geometry">
            <mxPoint x="770" y="570.5" as="targetPoint"/>
          </mxGeometry>
        </mxCell>
        <mxCell id="gFag3tpA4Mab_3IqUKp5-10" value="&lt;h1&gt;实验流程&lt;/h1&gt;" style="text;html=1;strokeColor=none;fillColor=none;spacing=5;spacingTop=-20;whiteSpace=wrap;overflow=hidden;rounded=0;" parent="1" vertex="1">
          <mxGeometry x="929.9999999999999" y="60" width="110" height="40" as="geometry"/>
        </mxCell>
        <mxCell id="gFag3tpA4Mab_3IqUKp5-50" value="" style="edgeStyle=orthogonalEdgeStyle;rounded=0;orthogonalLoop=1;jettySize=auto;html=1;" parent="1" source="gFag3tpA4Mab_3IqUKp5-12" target="gFag3tpA4Mab_3IqUKp5-48" edge="1">
          <mxGeometry relative="1" as="geometry"/>
        </mxCell>
        <mxCell id="gFag3tpA4Mab_3IqUKp5-12" value="点击实验" style="rounded=1;whiteSpace=wrap;html=1;" parent="1" vertex="1">
          <mxGeometry x="924.9999999999999" y="110" width="120" height="60" as="geometry"/>
        </mxCell>
        <mxCell id="gFag3tpA4Mab_3IqUKp5-14" value="" style="edgeStyle=orthogonalEdgeStyle;rounded=0;orthogonalLoop=1;jettySize=auto;html=1;entryX=0;entryY=0.5;entryDx=0;entryDy=0;" parent="1" source="gFag3tpA4Mab_3IqUKp5-15" target="6knOGrx5sN1F9vFyfk7x-44" edge="1">
          <mxGeometry relative="1" as="geometry">
            <mxPoint x="1170" y="380" as="targetPoint"/>
          </mxGeometry>
        </mxCell>
        <mxCell id="gFag3tpA4Mab_3IqUKp5-70" value="" style="edgeStyle=orthogonalEdgeStyle;rounded=0;orthogonalLoop=1;jettySize=auto;html=1;entryX=0.5;entryY=0;entryDx=0;entryDy=0;" parent="1" source="gFag3tpA4Mab_3IqUKp5-15" target="6knOGrx5sN1F9vFyfk7x-33" edge="1">
          <mxGeometry relative="1" as="geometry">
            <mxPoint x="985.1428571428571" y="470.5" as="targetPoint"/>
          </mxGeometry>
        </mxCell>
        <mxCell id="gFag3tpA4Mab_3IqUKp5-15" value="资源是否占满？" style="rhombus;whiteSpace=wrap;html=1;" parent="1" vertex="1">
          <mxGeometry x="889.9999999999999" y="340" width="190" height="80" as="geometry"/>
        </mxCell>
        <mxCell id="gFag3tpA4Mab_3IqUKp5-16" value="是" style="text;html=1;align=center;verticalAlign=middle;resizable=0;points=[];;autosize=1;" parent="1" vertex="1">
          <mxGeometry x="1100" y="350" width="30" height="20" as="geometry"/>
        </mxCell>
        <mxCell id="gFag3tpA4Mab_3IqUKp5-19" value="重新进入" style="rounded=1;whiteSpace=wrap;html=1;" parent="1" vertex="1">
          <mxGeometry x="1360" y="290" width="120" height="60" as="geometry"/>
        </mxCell>
        <mxCell id="gFag3tpA4Mab_3IqUKp5-56" value="" style="edgeStyle=orthogonalEdgeStyle;rounded=0;orthogonalLoop=1;jettySize=auto;html=1;" parent="1" source="gFag3tpA4Mab_3IqUKp5-48" target="gFag3tpA4Mab_3IqUKp5-54" edge="1">
          <mxGeometry relative="1" as="geometry"/>
        </mxCell>
        <mxCell id="gFag3tpA4Mab_3IqUKp5-57" value="" style="edgeStyle=orthogonalEdgeStyle;rounded=0;orthogonalLoop=1;jettySize=auto;html=1;" parent="1" source="gFag3tpA4Mab_3IqUKp5-48" target="gFag3tpA4Mab_3IqUKp5-15" edge="1">
          <mxGeometry relative="1" as="geometry"/>
        </mxCell>
        <mxCell id="gFag3tpA4Mab_3IqUKp5-48" value="当前时间是否存在我的预约？&lt;br&gt;" style="rhombus;whiteSpace=wrap;html=1;" parent="1" vertex="1">
          <mxGeometry x="889.9999999999999" y="210.5" width="190" height="80" as="geometry"/>
        </mxCell>
        <mxCell id="gFag3tpA4Mab_3IqUKp5-53" value="是" style="text;html=1;align=center;verticalAlign=middle;resizable=0;points=[];;autosize=1;" parent="1" vertex="1">
          <mxGeometry x="1100" y="220" width="30" height="20" as="geometry"/>
        </mxCell>
        <mxCell id="gkIDc3CSFXsxGVQptfjt-4" value="" style="edgeStyle=orthogonalEdgeStyle;rounded=0;orthogonalLoop=1;jettySize=auto;html=1;" edge="1" parent="1" source="gFag3tpA4Mab_3IqUKp5-54" target="gkIDc3CSFXsxGVQptfjt-3">
          <mxGeometry relative="1" as="geometry"/>
        </mxCell>
        <mxCell id="gFag3tpA4Mab_3IqUKp5-54" value="进入实验&lt;br&gt;生成占用记录" style="rounded=1;whiteSpace=wrap;html=1;" parent="1" vertex="1">
          <mxGeometry x="1165" y="220.5" width="120" height="60" as="geometry"/>
        </mxCell>
        <mxCell id="gkIDc3CSFXsxGVQptfjt-3" value="&lt;span style=&quot;white-space: nowrap&quot;&gt;结束时间为预约的结束时间&lt;/span&gt;" style="rounded=1;whiteSpace=wrap;html=1;gradientColor=none;dashed=1;" vertex="1" parent="1">
          <mxGeometry x="1330" y="221" width="180" height="59.5" as="geometry"/>
        </mxCell>
        <mxCell id="gFag3tpA4Mab_3IqUKp5-58" value="否" style="text;html=1;align=center;verticalAlign=middle;resizable=0;points=[];;autosize=1;" parent="1" vertex="1">
          <mxGeometry x="994.9999999999999" y="300" width="30" height="20" as="geometry"/>
        </mxCell>
        <mxCell id="gFag3tpA4Mab_3IqUKp5-67" value="否" style="text;html=1;align=center;verticalAlign=middle;resizable=0;points=[];;autosize=1;" parent="1" vertex="1">
          <mxGeometry x="994.9999999999999" y="430.5" width="30" height="20" as="geometry"/>
        </mxCell>
        <mxCell id="6knOGrx5sN1F9vFyfk7x-35" value="" style="edgeStyle=orthogonalEdgeStyle;rounded=0;orthogonalLoop=1;jettySize=auto;html=1;" parent="1" source="6knOGrx5sN1F9vFyfk7x-33" target="6knOGrx5sN1F9vFyfk7x-37" edge="1">
          <mxGeometry relative="1" as="geometry">
            <mxPoint x="1160" y="510" as="targetPoint"/>
          </mxGeometry>
        </mxCell>
        <mxCell id="6knOGrx5sN1F9vFyfk7x-39" value="" style="edgeStyle=orthogonalEdgeStyle;rounded=0;orthogonalLoop=1;jettySize=auto;html=1;entryX=0.5;entryY=0;entryDx=0;entryDy=0;" parent="1" source="6knOGrx5sN1F9vFyfk7x-33" edge="1" target="6knOGrx5sN1F9vFyfk7x-41">
          <mxGeometry relative="1" as="geometry">
            <mxPoint x="985" y="600" as="targetPoint"/>
          </mxGeometry>
        </mxCell>
        <mxCell id="6knOGrx5sN1F9vFyfk7x-33" value="当前时间段是否存在他人预约？" style="rhombus;whiteSpace=wrap;html=1;" parent="1" vertex="1">
          <mxGeometry x="889.9999999999999" y="470" width="190" height="80" as="geometry"/>
        </mxCell>
        <mxCell id="6knOGrx5sN1F9vFyfk7x-36" value="是" style="text;html=1;align=center;verticalAlign=middle;resizable=0;points=[];;autosize=1;" parent="1" vertex="1">
          <mxGeometry x="1100" y="487" width="30" height="20" as="geometry"/>
        </mxCell>
        <mxCell id="6knOGrx5sN1F9vFyfk7x-37" value="已被预约占用&lt;br&gt;跳转到预约" style="rounded=1;whiteSpace=wrap;html=1;" parent="1" vertex="1">
          <mxGeometry x="1165" y="480" width="120" height="60" as="geometry"/>
        </mxCell>
        <mxCell id="6knOGrx5sN1F9vFyfk7x-40" value="否" style="text;html=1;align=center;verticalAlign=middle;resizable=0;points=[];;autosize=1;" parent="1" vertex="1">
          <mxGeometry x="995" y="550" width="30" height="20" as="geometry"/>
        </mxCell>
        <mxCell id="gkIDc3CSFXsxGVQptfjt-6" value="" style="edgeStyle=orthogonalEdgeStyle;rounded=0;orthogonalLoop=1;jettySize=auto;html=1;" edge="1" parent="1" source="6knOGrx5sN1F9vFyfk7x-41" target="gkIDc3CSFXsxGVQptfjt-5">
          <mxGeometry relative="1" as="geometry"/>
        </mxCell>
        <mxCell id="6knOGrx5sN1F9vFyfk7x-41" value="进入实验&lt;br&gt;生成占用记录" style="rounded=1;whiteSpace=wrap;html=1;" parent="1" vertex="1">
          <mxGeometry x="925" y="590" width="120" height="60" as="geometry"/>
        </mxCell>
        <mxCell id="gkIDc3CSFXsxGVQptfjt-5" value="&lt;span style=&quot;white-space: nowrap&quot;&gt;如果下个时间段有人预约&lt;/span&gt;&lt;br style=&quot;white-space: nowrap&quot;&gt;&lt;span style=&quot;white-space: nowrap&quot;&gt;结束时间为下个时间段的开始时间&lt;/span&gt;&lt;br style=&quot;white-space: nowrap&quot;&gt;&lt;span style=&quot;white-space: nowrap&quot;&gt;如果下个时间段无人预约&lt;/span&gt;&lt;br style=&quot;white-space: nowrap&quot;&gt;&lt;span style=&quot;white-space: nowrap&quot;&gt;结束时间为默认值&lt;/span&gt;" style="rounded=1;whiteSpace=wrap;html=1;dashed=1;" vertex="1" parent="1">
          <mxGeometry x="1117.5" y="575" width="215" height="90" as="geometry"/>
        </mxCell>
        <mxCell id="6knOGrx5sN1F9vFyfk7x-46" value="" style="edgeStyle=orthogonalEdgeStyle;rounded=0;orthogonalLoop=1;jettySize=auto;html=1;entryX=0;entryY=0.5;entryDx=0;entryDy=0;exitX=0.5;exitY=0;exitDx=0;exitDy=0;" parent="1" source="6knOGrx5sN1F9vFyfk7x-44" target="gFag3tpA4Mab_3IqUKp5-19" edge="1">
          <mxGeometry relative="1" as="geometry">
            <mxPoint x="1430" y="380" as="targetPoint"/>
          </mxGeometry>
        </mxCell>
        <mxCell id="6knOGrx5sN1F9vFyfk7x-48" value="" style="edgeStyle=orthogonalEdgeStyle;rounded=0;orthogonalLoop=1;jettySize=auto;html=1;entryX=0;entryY=0.5;entryDx=0;entryDy=0;" parent="1" source="6knOGrx5sN1F9vFyfk7x-44" target="6knOGrx5sN1F9vFyfk7x-49" edge="1">
          <mxGeometry relative="1" as="geometry">
            <mxPoint x="1360" y="450" as="targetPoint"/>
            <Array as="points">
              <mxPoint x="1245" y="440"/>
            </Array>
          </mxGeometry>
        </mxCell>
        <mxCell id="6knOGrx5sN1F9vFyfk7x-44" value="是否存在我的占用？" style="rhombus;whiteSpace=wrap;html=1;" parent="1" vertex="1">
          <mxGeometry x="1150" y="340" width="190" height="80" as="geometry"/>
        </mxCell>
        <mxCell id="6knOGrx5sN1F9vFyfk7x-47" value="是" style="text;html=1;align=center;verticalAlign=middle;resizable=0;points=[];;autosize=1;" parent="1" vertex="1">
          <mxGeometry x="1285" y="300" width="30" height="20" as="geometry"/>
        </mxCell>
        <mxCell id="6knOGrx5sN1F9vFyfk7x-49" value="已被占满&lt;br&gt;跳转到预约" style="rounded=1;whiteSpace=wrap;html=1;" parent="1" vertex="1">
          <mxGeometry x="1360" y="410" width="120" height="60" as="geometry"/>
        </mxCell>
        <mxCell id="6knOGrx5sN1F9vFyfk7x-50" value="否" style="text;html=1;align=center;verticalAlign=middle;resizable=0;points=[];;autosize=1;" parent="1" vertex="1">
          <mxGeometry x="1285" y="420" width="30" height="20" as="geometry"/>
        </mxCell>
      </root>
    </mxGraphModel>
  </diagram>
</mxfile>
